<svg xmlns="http://www.w3.org/2000/svg" aria-hidden="true" style="position:absolute;width:0;height:0;overflow:hidden"><defs><symbol id="icon-antenna" viewBox="0 0 32 32"><path fill="#212121" d="m30.773 22.098-8.443-8.505.937-4.616c.225.09.485.144.758.146h.033a2.16 2.16 0 1 0-2.029-1.42l-.005-.015-4.96.606L8.973.161a.53.53 0 0 0-.376-.16.536.536 0 0 0-.373.155L6.712 1.66a.535.535 0 0 0 0 .754l.814.825C6.383 5.301 5.71 7.761 5.71 10.378c0 4.106 1.656 7.824 4.336 10.525l-.001-.001a.49.49 0 0 0 .146.097 2.986 2.986 0 0 0-.052.546v6.188h-6.4a2.669 2.669 0 0 0-2.667 2.666v1.067c0 .295.239.534.534.534H26.14a.534.534 0 0 0 .533-.534v-1.067a2.67 2.67 0 0 0-2.666-2.666h-6.4v-2.742a14.784 14.784 0 0 0 10.166-1.502l-.077.039.818.823a.534.534 0 0 0 .376.16.536.536 0 0 0 .373-.155l1.512-1.504a.535.535 0 0 0 0-.754zM23.28 6.233a1.067 1.067 0 1 1 .752 1.822h-.004a1.066 1.066 0 0 1-.747-1.822h-.002zm-1.256 3.504-.598 2.946-1.175-1.183 1.774-1.763zm-.605-.902-1.92 1.909-1.486-1.493 3.406-.416zM24.004 28.8a1.6 1.6 0 0 1 1.6 1.6v.534H2.138V30.4a1.6 1.6 0 0 1 1.6-1.6h20.267zm-7.466-2.134v1.067h-5.334v-1.067h5.334zM11.204 25.6v-4.053c0-1.294 1.196-2.346 2.667-2.346s2.667 1.053 2.667 2.346V25.6h-5.334zm6.4-1.696v-2.357c0-1.882-1.675-3.413-3.733-3.413h-.058c-1.353 0-2.54.707-3.213 1.771l-.009.016a13.817 13.817 0 0 1-3.812-9.55c0-2.314.567-4.496 1.569-6.414l-.036.077 18.602 18.709c-1.823.947-3.979 1.502-6.266 1.502-1.079 0-2.128-.124-3.136-.357l.093.018zm11.289-.684L7.836 2.039l.754-.752 7.935 7.98c.004 0 .006.007.01.01l13.114 13.191-.757.752z" style="fill:var(--color1, #212121)"/><path fill="#2196f3" d="M13.876 20.267h-.007a1.6 1.6 0 0 0-.003 3.2h.007a1.6 1.6 0 0 0 .002-3.2zm.373 1.978a.534.534 0 1 1-.378-.912.533.533 0 0 1 .374.911h.005z" style="fill:var(--color2, #2196f3)"/></symbol><symbol id="icon-astronaut" viewBox="0 0 32 32"><path fill="#2196f3" d="M31.974 4.524a.535.535 0 0 0-.427-.362h-.003l-1.911-.278-.855-1.731c-.179-.365-.777-.365-.956 0l-.855 1.731-1.911.278a.534.534 0 0 0-.296.91l1.383 1.348-.326 1.903a.532.532 0 0 0 .774.562l1.709-.899 1.709.899a.534.534 0 0 0 .773-.565v.003l-.326-1.903 1.383-1.348a.535.535 0 0 0 .134-.55l.001.004zm-2.463 1.327a.53.53 0 0 0-.153.472l.191 1.114-1-.526a.525.525 0 0 0-.501.001l.003-.001-1 .526.191-1.114a.53.53 0 0 0-.152-.472l-.811-.79 1.119-.162a.532.532 0 0 0 .402-.292l.5-1.013.5 1.013a.532.532 0 0 0 .402.292l1.119.162-.809.79zm-3.377 14.671h-1.067v1.067h1.067v-1.067zm0 2.134h-1.067v1.066h1.067v-1.066zm1.066-1.067h-1.067v1.067H27.2v-1.067zm-2.133 0H24v1.067h1.067v-1.067zm-2.667 4.8h-1.067v1.067H22.4v-1.067zm0 2.134h-1.067v1.067H22.4v-1.067zm1.067-1.067H22.4v1.067h1.067v-1.067zm-2.133 0h-1.067v1.067h1.067v-1.067zM16 24.256h-1.066v1.067H16v-1.067zm0 2.133h-1.066v1.067H16v-1.067zm1.067-1.067H16v1.067h1.067v-1.067zm-2.133 0h-1.067v1.067h1.067v-1.067zm-9.067-19.2H4.801v1.066h1.066V6.122zm0 2.134H4.801v1.066h1.066V8.256zm1.066-1.067H5.866v1.067h1.066V7.189zm-2.133 0H3.733v1.067H4.8V7.189z" style="fill:var(--color2, #2196f3)"/><path fill="#212121" d="M24.715 14.16a1.776 1.776 0 0 0-1.179-.703l-.009-.001a1.769 1.769 0 0 0-1.344.355l.004-.003-1.253.96-1.898 1.417-1.358-.541c2.421-1.086 4.113-3.508 4.113-6.32 0-3.823-3.122-6.934-6.961-6.934S7.869 5.5 7.869 9.324c0 1.386.415 2.674 1.12 3.759l-2.768-.024c-.009 0-.016.005-.023.005a.511.511 0 0 0-.159.033l.004-.001c-.013.005-.026.007-.038.013-.006.003-.013.003-.019.006l-3.233 1.596-.001.001-1.893.91a.5.5 0 0 0-.065.036l.001-.001a1.782 1.782 0 0 0-.594 2.306l-.005-.01c.22.424.592.742 1.043.885l.013.003a1.772 1.772 0 0 0 1.388-.133l-.009.005 1.388-.738 2.264-1.169 1.357-.008-5.442 5.415-.001.001-1.339 1.333a1.643 1.643 0 0 0-.491 1.173v.005a1.668 1.668 0 0 0 1.667 1.664h.002a1.67 1.67 0 0 0 1.18-.485l1.314-1.309 1.741-1.3.901.897L4.07 27.28a1.643 1.643 0 0 0-.491 1.173v.004a1.662 1.662 0 0 0 1.666 1.664h.003a1.67 1.67 0 0 0 1.18-.485l4.488-4.472c.007-.006.016-.009.022-.016l5.166-5.658 3.471.494a.474.474 0 0 0 .262-.032c.017-.006.032-.015.049-.023.019-.01.039-.015.058-.027l3.213-2.133c.012-.008.018-.021.029-.03.013-.01.029-.014.041-.026l1.271-1.191c.348-.326.564-.787.564-1.3 0-.4-.132-.769-.355-1.066l.003.005zM2.13 17.77a.706.706 0 0 1-.564.05l.005.001a.717.717 0 0 1-.215-1.258l.002-.001 1.314-.632.316.924.133.389-.992.527zm3.497-1.828-1.548.8-.255-.746-.184-.537 2.027-1.001-.04 1.484zm15.1-6.62c0 .918-.219 1.785-.599 2.56l-4.181-1.899a1.865 1.865 0 0 0-.782-1.384l-.006-.004 1.464-4.861c2.377.757 4.104 2.975 4.104 5.588zm-11.789 0c0-3.235 2.644-5.867 5.894-5.867.253 0 .5.022.745.053l-1.432 4.753c-.019 0-.037-.006-.057-.006h-.001a1.872 1.872 0 0 0-1.872 1.867 1.873 1.873 0 0 0 1.872 1.867h.001c.695 0 1.295-.383 1.618-.944l3.863 1.755a5.891 5.891 0 0 1-4.737 2.39c-3.25 0-5.894-2.632-5.894-5.867zm5.957.8c0 .441-.362.8-.806.8h-.001a.804.804 0 0 1-.804-.8c0-.441.361-.8.806-.8s.806.359.806.8zM2.464 25.146a.606.606 0 0 1-.855.001.591.591 0 0 1 0-.844l.962-.959.852.848-.959.954zm3.214 3.734a.606.606 0 0 1-.855.001.591.591 0 0 1 0-.844l.963-.959.852.848-.96.955zm3.482-3.469-.001.001-1.765 1.76-.852-.848 1.765-1.757a.527.527 0 0 0 .09-.136c.007-.014.02-.026.026-.04.016-.041.019-.085.026-.128.003-.025.014-.048.014-.073 0-.035-.013-.07-.02-.105-.006-.032-.006-.064-.019-.096a.536.536 0 0 0-.092-.138c-.01-.012-.014-.026-.025-.038h-.001l-.001-.002-1.607-1.6c-.017-.017-.039-.024-.058-.038a.491.491 0 0 0-.084-.056l-.003-.001a.527.527 0 0 0-.09-.031l-.003-.001a.502.502 0 0 0-.101-.02h-.025a.603.603 0 0 0-.075.005h.003c-.036.005-.069.009-.104.021s-.064.027-.094.045c-.02.011-.043.015-.061.029l-1.774 1.324-.901-.897 2.399-2.386 4.36 4.289-.928.919zm6.819-7.017c-.016-.002-.03.004-.046.003l-.027-.001a.562.562 0 0 0-.092.008h.003a.484.484 0 0 0-.187.07l.002-.001a.492.492 0 0 0-.083.061c-.013.011-.028.016-.04.029l-4.698 5.146-4.328-4.256 2.833-2.818a.535.535 0 0 0-.378-.911h-.002l-2.219.013.028-1.607 3.104.027a6.928 6.928 0 0 0 4.978 2.101h.003c.438 0 .864-.046 1.28-.122.04.032.08.064.129.085l2.41.96.152.758.178.886-3.003-.427zm4.041.178-.313-1.558 1.446-1.08.946 1.257-2.08 1.381zm3.753-2.831-.837.785-.931-1.236.831-.637a.735.735 0 0 1 .543-.143.718.718 0 0 1 .621.71.71.71 0 0 1-.226.521z" style="fill:var(--color1, #212121)"/><path fill="#212121" d="m13.602 18.544-2.143-2.134a.53.53 0 0 0-.752 0l-2.143 2.133a.535.535 0 0 0 0 .756l2.142 2.134a.53.53 0 0 0 .752 0l2.143-2.134a.532.532 0 0 0 0-.756zm-2.519 1.759-1.387-1.381 1.386-1.381 1.387 1.381-1.387 1.381zm6.081-15.232-.258 1.036c.071.018 1.738.452 1.738 2.149h1.067c0-2.017-1.666-2.965-2.547-3.184zm2.547 4.251h-1.067v1.066h1.067V9.322z" style="fill:var(--color1, #212121)"/></symbol><symbol id="icon-clock" viewBox="0 0 32 32"><path fill="#212121" d="M31.296 15.301C31.295 6.849 24.441-.002 15.988 0S.685 6.855.687 15.308c.002 6.788 4.422 12.543 10.541 14.545l.108.031a.667.667 0 0 0 .529-.065.636.636 0 0 0 .283-.357l3.865-12.25a1.913 1.913 0 1 0-.852-3.63l.011-.005-5.106-5.107a.638.638 0 0 0-.902.902l5.103 5.109a1.847 1.847 0 0 0-.191.826c0 .602.283 1.137.723 1.48l.004.003-3.682 11.673C3.843 25.782.117 17.709 2.797 10.431S13.551-.573 20.829 2.108c7.278 2.681 11.004 10.754 8.323 18.032-1.345 3.581-4.003 6.406-7.374 7.938l-.088.036-.398-1.874a.639.639 0 0 0-1.05-.343l.001-.001-3.837 3.426a.637.637 0 0 0 .227 1.083l.005.001 4.899 1.563a.637.637 0 0 0 .818-.744l.001.004-.391-1.839c5.528-2.374 9.329-7.772 9.329-14.057v-.034.002zm-15.304-.637a.638.638 0 0 1 0 1.276.638.638 0 0 1 0-1.276zm2.1 14.864 2.184-1.948.603 2.84-2.787-.892z" style="fill:var(--color1, #212121)"/><path fill="#2196f3" d="M15.354 3.185V4.46a.638.638 0 0 0 1.276 0V3.185a.638.638 0 1 0-1.276 0zM3.876 14.664a.638.638 0 0 0 0 1.276h1.275a.638.638 0 0 0 0-1.276H3.876zm24.232 1.275a.638.638 0 0 0 0-1.276h-1.275a.638.638 0 0 0 0 1.276h1.275z" style="fill:var(--color2, #2196f3)"/></symbol><symbol id="icon-diagram" viewBox="0 0 32 32"><path fill="#2196f3" d="M14.926 14.965h1.066v4.798h-1.066v-4.798zm4.264 2.132h1.066v2.665H19.19v-2.665zm-8.529 1.599h1.066v1.066h-1.066v-1.066zm-3.198-.533h1.066v1.599H7.463v-1.599z" style="fill:var(--color2, #2196f3)"/><path fill="#212121" d="M1.599 28.291h25.586a1.6 1.6 0 0 0 1.599-1.599V24.56a1.6 1.6 0 0 0-1.599-1.599h-.533V9.667l3.028-2.868a1.608 1.608 0 1 0-.742-.752l-.004-.01-2.281 2.162v-1.23a1.6 1.6 0 0 0-1.599-1.599H3.731a1.6 1.6 0 0 0-1.599 1.599v15.992h-.533A1.6 1.6 0 0 0 0 24.56v2.132a1.6 1.6 0 0 0 1.599 1.599zM30.384 4.837a.533.533 0 0 1 0 1.066.533.533 0 0 1 0-1.066zM3.198 6.969c0-.294.239-.533.533-.533h21.323c.294 0 .533.239.533.533v2.239l-1.066 1.013V8.036a.534.534 0 0 0-.534-.534H4.798a.534.534 0 0 0-.534.533v13.327c0 .294.239.533.534.533h19.189a.534.534 0 0 0 .534-.533v-9.675l1.066-1.01V22.96H3.198V6.969zm4.798 6.93h-.005a1.6 1.6 0 1 0 1.112 2.748l1.853.93a.535.535 0 0 0 .636-.122l3.939-4.432 3.872 2.902a.534.534 0 0 0 .686-.039l3.365-3.188v8.131H5.331V8.568h18.123v2.661l-3.771 3.572-3.904-2.927a.534.534 0 0 0-.718.071v.001l-3.993 4.493-1.493-.746c.011-.064.017-.128.02-.193a1.6 1.6 0 0 0-1.599-1.599zm.533 1.599a.533.533 0 0 1-1.066 0 .533.533 0 0 1 1.066 0zm3.198 8.528h5.33v.533a.533.533 0 0 1-.533.533h-4.265a.533.533 0 0 1-.533-.533v-.533zm-10.66.534c0-.294.238-.533.533-.533h9.062v.533a1.6 1.6 0 0 0 1.599 1.599h4.265a1.6 1.6 0 0 0 1.599-1.599v-.533h9.062c.294 0 .533.239.533.533v2.132a.533.533 0 0 1-.533.533H1.601a.533.533 0 0 1-.533-.533V24.56z" style="fill:var(--color1, #212121)"/></symbol><symbol id="icon-envelope" viewBox="0 0 43 32"><path  d="M38.667 0H4C1.795 0 0 1.795 0 4v24c0 2.205 1.795 4 4 4h34.667c2.205 0 4-1.795 4-4V4c0-2.205-1.795-4-4-4zm0 2.667c.181 0 .355.037.512.104L21.334 18.238 3.489 2.771c.151-.065.327-.104.512-.104h34.667zm0 26.666H4A1.333 1.333 0 0 1 2.667 28V5.587l17.792 15.421c.233.203.539.327.875.327s.642-.124.876-.328l-.002.001L40 5.587V28c0 .736-.597 1.333-1.333 1.333z" style=""/></symbol><symbol id="icon-facebook" viewBox="0 0 32 32"><path fill="" d="M21.328 5.312h2.923V.224A36.483 36.483 0 0 0 20.143 0h-.156.008c-4.213 0-7.099 2.65-7.099 7.52V12H8.25v5.688h4.646V32h5.699V17.69h4.459l.707-5.688h-5.168V8.08c0-1.643.443-2.768 2.734-2.768z" style=""/></symbol><symbol id="icon-group" viewBox="0 0 57 32"><path fill="" d="m20.267 3.733 3.738 3.538-6.938-.004v17.166H35.2v-6.564l3.733 3.534V3.732H20.266zm14.769 13.722L24.439 7.423h10.597v10.032zm-3.29 4.468h-11.81V10.378h.835v10.764h10.975v.782zm-9.455 5.701-.44-.905h-.363l.638 1.198v.698h.329v-.698l.638-1.198h-.362l-.44.905zm1.623-.904h.078l.716 1.896h-.344l-.153-.444h-.734l-.153.444h-.342l.714-1.896h.219zm-.348 1.192h.555l-.278-.804-.277.804zm2.291-.314-.041-.053c-.049-.064-.086-.126-.113-.186s-.04-.123-.04-.188c0-.099.02-.184.061-.255s.099-.126.173-.164a.56.56 0 0 1 .262-.059c.096 0 .179.02.249.059s.124.089.161.152a.397.397 0 0 1 .057.208c0 .06-.011.115-.033.164s-.052.095-.09.135a.9.9 0 0 1-.133.116l-.132.096.375.443a.777.777 0 0 0 .082-.354h.271c0 .092-.009.179-.027.262a.826.826 0 0 1-.139.313l.278.328h-.363l-.11-.13a.724.724 0 0 1-.195.106.864.864 0 0 1-.621-.02.521.521 0 0 1-.214-.19.524.524 0 0 1-.074-.277c0-.077.016-.145.048-.203s.076-.114.132-.164c.051-.047.11-.093.175-.14zm.156.191-.039.029c-.046.037-.08.073-.103.108a.295.295 0 0 0-.053.17c0 .056.012.106.035.151s.059.081.105.108a.349.349 0 0 0 .171.039.488.488 0 0 0 .307-.108l-.422-.496zm.075-.347.116-.078c.055-.036.094-.072.117-.107s.035-.08.035-.133c0-.045-.017-.087-.052-.125s-.084-.057-.147-.057a.192.192 0 0 0-.181.112.28.28 0 0 0 .008.232.705.705 0 0 0 .104.157zm3.316.556h-.326c-.01.082-.029.152-.06.21s-.073.099-.131.129a.484.484 0 0 1-.225.044.37.37 0 0 1-.332-.175c-.035-.056-.061-.122-.078-.199s-.025-.165-.025-.26v-.16c0-.101.009-.19.027-.268s.047-.145.085-.199.084-.095.139-.122a.43.43 0 0 1 .195-.042c.091 0 .165.016.221.047s.099.075.128.133a.597.597 0 0 1 .057.21h.326c-.013-.127-.049-.239-.107-.337s-.138-.175-.242-.23a.8.8 0 0 0-.383-.083c-.119 0-.226.021-.322.063s-.176.102-.243.181c-.068.078-.12.172-.156.283s-.053.233-.053.37v.158c0 .136.017.26.052.37s.087.204.154.282a.703.703 0 0 0 .557.243c.153 0 .283-.028.389-.083s.19-.132.249-.228a.746.746 0 0 0 .104-.332zm1.809-.278v-.104c0-.143-.019-.271-.057-.384s-.091-.21-.16-.29c-.069-.081-.152-.142-.249-.184s-.203-.064-.32-.064c-.116 0-.223.021-.319.064s-.178.103-.249.184c-.07.08-.123.177-.162.29s-.057.241-.057.384v.104c0 .143.019.272.057.385s.094.21.164.29a.715.715 0 0 0 .568.247c.117 0 .224-.021.32-.063s.179-.104.247-.184c.069-.08.123-.177.16-.29s.056-.242.056-.385zm-.327-.107v.107c0 .106-.01.2-.031.281s-.049.151-.089.207a.381.381 0 0 1-.337.168c-.072 0-.136-.014-.193-.042s-.105-.071-.146-.126c-.04-.056-.07-.125-.091-.207s-.031-.175-.031-.281v-.107c0-.106.01-.199.031-.28s.051-.15.09-.204c.04-.056.088-.097.145-.125s.121-.043.193-.043.137.014.194.043c.057.028.105.07.145.125s.07.123.09.204c.021.081.031.174.031.28z" style=""/></symbol><symbol id="icon-group1" viewBox="0 0 57 32"><path fill="" d="M26.727 3.135h-.073c-.112-.007-.224-.009-.336-.012h-.243c-.212 0-.428.005-.642.016a.4.4 0 0 0-.049 0 15.316 15.316 0 0 0-5.609 1.403l-.231.109v11.582l.54-.18c.474-.16.978-.303 1.5-.436a18.7 18.7 0 0 1 4.317-.563v1.522c-.193.001-.38.007-.568.016h-.045c-1.121.06-2.233.228-3.322.5a17.037 17.037 0 0 0-3.957 1.512V3.75a16.041 16.041 0 0 1 4.151-1.656 16.177 16.177 0 0 1 3.913-.495h.228c.273.007.538.019.788.037.658.045 1.31.147 1.95.305v1.498a12.278 12.278 0 0 0-1.889-.279l-.039-.003c-.132-.011-.263-.022-.386-.022zm2.688 1.531c.339.025.689.037 1.044.037a17.13 17.13 0 0 0 4.114-.517 17.143 17.143 0 0 0 3.956-1.514v14.589a16.076 16.076 0 0 1-4.153 1.656 16.282 16.282 0 0 1-3.913.494c-1 .008-1.997-.107-2.968-.343V4.384a12.244 12.244 0 0 0 1.92.282zm7.57.113-.54.178c-.497.164-.997.31-1.5.44a18.61 18.61 0 0 1-4.483.564c-.352 0-.676-.009-.989-.029l-.43-.028v11.914l.37.032c.343.029.696.044 1.052.044a14.647 14.647 0 0 0 3.531-.448c.95-.234 1.874-.559 2.759-.972l.231-.109V4.779zM19.06 23.681a.801.801 0 0 0-.6-.238.894.894 0 0 0-.347.064c-.101.039-.193.099-.27.174s-.135.166-.174.266a.859.859 0 0 0-.062.329v1.985a.906.906 0 0 0 .08.407.712.712 0 0 0 .48.407c.098.027.2.041.302.041a.846.846 0 0 0 .838-.836v-.222h-.529v.177a.447.447 0 0 1-.031.177.317.317 0 0 1-.077.112.38.38 0 0 1-.222.076c-.047.005-.095-.002-.139-.02s-.081-.048-.11-.086a.463.463 0 0 1-.07-.266v-1.85a.626.626 0 0 1 .065-.297.275.275 0 0 1 .259-.119.284.284 0 0 1 .236.112.42.42 0 0 1 .088.266v.172h.524v-.202a.914.914 0 0 0-.242-.626zM22.202 23.658a.949.949 0 0 0-.602-.218.919.919 0 0 0-.595.218.801.801 0 0 0-.205.278.922.922 0 0 0-.077.384v1.903a.903.903 0 0 0 .077.39.783.783 0 0 0 .205.266.83.83 0 0 0 .279.168c.101.037.208.055.316.056s.215-.019.316-.056a.888.888 0 0 0 .286-.168.829.829 0 0 0 .2-.266.903.903 0 0 0 .077-.39V24.32a.858.858 0 0 0-.277-.662zm-.247 2.566a.342.342 0 0 1-.105.275.39.39 0 0 1-.498 0 .336.336 0 0 1-.105-.275v-1.903a.342.342 0 0 1 .105-.275.395.395 0 0 1 .498 0 .336.336 0 0 1 .105.275v1.903zM26.329 27.074v-3.603h-.509l-.668 1.907h-.009l-.673-1.907h-.503v3.603h.525v-2.192h.009l.514 1.55h.262l.518-1.55h.009v2.192h.525zM29.311 23.723a.728.728 0 0 0-.297-.197 1.195 1.195 0 0 0-.38-.056h-.78v3.603h.523v-1.407h.27a.985.985 0 0 0 .472-.098.758.758 0 0 0 .287-.275.853.853 0 0 0 .12-.314 2.45 2.45 0 0 0 .028-.41 2.029 2.029 0 0 0-.051-.515.755.755 0 0 0-.193-.331zm-.27 1.099a.445.445 0 0 1-.049.188.29.29 0 0 1-.135.126.551.551 0 0 1-.247.045h-.239v-1.225h.27a.518.518 0 0 1 .236.045c.054.03.097.077.123.133a.518.518 0 0 1 .046.201v.239c0 .083.005.17 0 .247h-.005zM31.791 23.471h-.429l-.809 3.603h.523l.154-.774h.714l.154.774h.524l-.83-3.603zm-.483 2.338.258-1.306h.009l.256 1.306h-.524zM35.173 25.641h-.009l-.791-2.171h-.503v3.603h.523v-2.167h.011l.8 2.167h.492V23.47h-.523v2.171zM38.372 23.471l-.421 1.433h-.011l-.421-1.433h-.554l.719 2.08v1.523h.524v-1.523l.719-2.08h-.554zM17.6 28.091h.252v.694h.171v-.694h.251v-.142h-.675v.142zM19.721 27.949l-.331.837h.182l.07-.19h.34l.073.19h.186l-.339-.837h-.182zm-.027.506.116-.31.116.31h-.232zM21.818 28.477h.197v.108a.33.33 0 0 1-.202.07.214.214 0 0 1-.181-.08.34.34 0 0 1-.063-.218c0-.186.082-.279.246-.279.043-.004.086.007.121.031s.061.06.072.102l.169-.032c-.036-.164-.156-.246-.362-.246a.433.433 0 0 0-.298.108.405.405 0 0 0-.122.322.452.452 0 0 0 .109.314.416.416 0 0 0 .324.122.518.518 0 0 0 .362-.133v-.33h-.37v.141zM23.959 27.949h-.173v.837h.598v-.142h-.425v-.694zM25.769 27.949h-.173v.837h.173v-.837zM27.539 28.508l-.349-.559h-.167v.837h.161v-.547l.343.547h.171v-.837h-.158v.559zM29.14 28.417h.425v-.142h-.425v-.184h.457v-.142h-.63v.837h.648v-.142h-.475v-.226zM33.02 28.279h-.336v-.33h-.171v.837h.171v-.366h.336v.366h.171v-.837h-.171v.33zM34.629 28.417h.426v-.142h-.426v-.184h.459v-.142h-.63v.837h.646v-.142h-.475v-.226zM36.812 28.417c.148-.023.224-.1.224-.233.004-.036-.001-.072-.016-.104s-.038-.061-.068-.082a.488.488 0 0 0-.25-.049h-.362v.837h.171v-.35h.034a.231.231 0 0 1 .107.019.178.178 0 0 1 .061.061l.186.266h.205L37 28.618a.587.587 0 0 0-.189-.201zm-.172-.115h-.127v-.21h.135a.445.445 0 0 1 .174.02c.012.011.022.024.029.039s.009.031.009.048c-.001.016-.005.032-.013.047s-.019.027-.032.036a.486.486 0 0 1-.174.02zM38.458 28.417h.425v-.142h-.425v-.184h.459v-.142h-.631v.837h.648v-.142h-.475v-.226z" style=""/></symbol><symbol id="icon-group2" viewBox="0 0 57 32"><path fill="" d="M19.417 26.187c.008 0 .017.002.025.005s.015.007.02.013l.116.111a.955.955 0 0 1-.327.211 1.299 1.299 0 0 1-.464.076 1.213 1.213 0 0 1-.436-.071.942.942 0 0 1-.329-.2.878.878 0 0 1-.212-.308 1.02 1.02 0 0 1-.074-.396.91.91 0 0 1 .305-.705 1.06 1.06 0 0 1 .349-.201c.143-.048.296-.072.449-.071.143-.003.285.019.417.064.115.043.221.104.313.178l-.097.119a.085.085 0 0 1-.025.021.066.066 0 0 1-.039.009.086.086 0 0 1-.042-.013l-.052-.032-.073-.04a.818.818 0 0 0-.229-.071 1.11 1.11 0 0 0-.173-.013.952.952 0 0 0-.323.053.683.683 0 0 0-.417.387.81.81 0 0 0-.06.313.795.795 0 0 0 .06.318.68.68 0 0 0 .402.383.867.867 0 0 0 .3.05c.059.001.119-.003.177-.01a.69.69 0 0 0 .384-.163.09.09 0 0 1 .055-.02zM22.776 25.629a.974.974 0 0 1-.078.393c-.047.114-.122.218-.219.305s-.214.155-.344.2a1.42 1.42 0 0 1-.884 0 1.027 1.027 0 0 1-.342-.201.904.904 0 0 1-.221-.308 1.022 1.022 0 0 1 0-.787.94.94 0 0 1 .221-.31c.097-.084.214-.15.342-.193.284-.096.6-.096.884 0 .129.046.246.114.343.201a.914.914 0 0 1 .298.699zm-.306 0a.84.84 0 0 0-.055-.316.653.653 0 0 0-.402-.385 1.025 1.025 0 0 0-.643 0 .683.683 0 0 0-.246.149.63.63 0 0 0-.157.236.927.927 0 0 0 0 .632.643.643 0 0 0 .403.384c.207.067.435.067.643 0a.698.698 0 0 0 .246-.148.662.662 0 0 0 .156-.236.82.82 0 0 0 .055-.316zM25.067 25.96l.03.071.033-.071a.68.68 0 0 1 .038-.07l.743-1.174c.015-.02.028-.033.042-.037a.207.207 0 0 1 .061-.006h.22v1.909h-.26V25.119a.726.726 0 0 1 0-.066l-.747 1.19c-.009.018-.025.033-.044.043s-.041.016-.064.016h-.042c-.023 0-.045-.005-.064-.016s-.034-.026-.044-.044l-.769-1.198v1.533h-.252v-1.905h.22a.207.207 0 0 1 .061.006.087.087 0 0 1 .041.037l.759 1.175a.418.418 0 0 1 .038.068zM27.864 25.865v.715h-.291v-1.906h.649c.122-.002.244.012.362.042a.724.724 0 0 1 .256.119.492.492 0 0 1 .145.187.576.576 0 0 1 .049.244.54.54 0 0 1-.211.435.752.752 0 0 1-.257.126 1.25 1.25 0 0 1-.35.044l-.352-.005zm0-.205h.352a.808.808 0 0 0 .225-.029.52.52 0 0 0 .163-.082.358.358 0 0 0 .134-.286c.003-.053-.007-.106-.029-.155s-.057-.094-.102-.13a.624.624 0 0 0-.391-.102h-.352v.786zM31.772 26.583h-.23a.109.109 0 0 1-.064-.018.123.123 0 0 1-.038-.044l-.198-.461h-.993l-.205.461a.107.107 0 0 1-.101.062h-.23l.872-1.909h.302l.884 1.909zm-1.439-.709h.82l-.346-.777a1.276 1.276 0 0 1-.065-.179l-.034.1a.98.98 0 0 1-.032.081l-.343.776zM33.029 24.682c.017.008.032.02.044.034l1.272 1.439V24.673h.26v1.909h-.145a.136.136 0 0 1-.06-.011.165.165 0 0 1-.047-.035l-1.271-1.438a.726.726 0 0 1 0 .066v1.419h-.26v-1.909h.154a.15.15 0 0 1 .052.009zM36.748 25.823v.758h-.291v-.758l-.804-1.15h.26a.114.114 0 0 1 .063.016.159.159 0 0 1 .039.043l.503.742a.717.717 0 0 1 .088.169l.038-.082a.745.745 0 0 1 .049-.087l.496-.747a.18.18 0 0 1 .038-.04.098.098 0 0 1 .063-.019h.263l-.806 1.155zM24.923 21.47c.127.014.255.025.384.035 1.962-.763 3.622-2.011 4.772-3.588s1.74-3.415 1.695-5.282l-2.162-1.879c.44 1.988.234 4.043-.594 5.935s-2.245 3.547-4.094 4.779z" style=""/><path fill="" d="m24.151 21.383.058.01c1.975-1.228 3.482-2.942 4.323-4.921s.981-4.133.4-6.181l-3.08-2.676c1.246 2.2 1.747 4.661 1.446 7.098s-1.393 4.75-3.147 6.67zM34.596 14.841c-.523 2.052-1.794 3.902-3.624 5.276-.534.404-1.111.763-1.722 1.074 1.49-.38 2.859-1.053 4.003-1.966s2.03-2.042 2.592-3.3l-1.249-1.084z" style=""/><path fill="" d="m34.106 14.539-1.778-1.545c-.034 1.762-.61 3.483-1.669 4.986s-2.562 2.731-4.352 3.559h.009c.399 0 .798-.021 1.194-.062 1.673-.593 3.151-1.537 4.303-2.748s1.94-2.65 2.295-4.189zM24.409 6.486 22.287 4.64c-1.897.637-3.528 1.756-4.68 3.212s-1.772 3.179-1.778 4.946c.007 1.952.763 3.846 2.149 5.383s3.322 2.628 5.501 3.101c1.946-2.06 3.085-4.605 3.252-7.266s-.647-5.299-2.323-7.53zM39.008 14.255c-.008-2.316-1.07-4.535-2.955-6.173s-4.439-2.561-7.105-2.567a11.3 11.3 0 0 0-3.602.582l12.99 11.286a7.647 7.647 0 0 0 .672-3.128z" style=""/></symbol><symbol id="icon-group3" viewBox="0 0 57 32"><path fill="" d="M12.878 11.255h-.002c-1.279 0-2.316.921-2.316 2.058v.001c0 1.137 1.037 2.058 2.316 2.058h.002c1.279 0 2.316-.921 2.316-2.058v-.001c0-1.137-1.037-2.058-2.316-2.058zM29.971 10.597c-.004-1.579-.711-3.092-1.967-4.208s-2.958-1.745-4.735-1.749c-1.777.003-3.48.631-4.737 1.748s-1.964 2.63-1.968 4.209v8.706s13.405-1.327 13.406-8.704v-.001zM5.867 22.16c.003 1.098.496 2.151 1.369 2.928s2.058 1.215 3.294 1.218c1.236-.003 2.42-.441 3.294-1.218s1.366-1.829 1.37-2.927v-6.057s-9.327.924-9.327 6.056zm4.663 1.085c-.242 0-.478-.064-.678-.183s-.357-.289-.45-.487c-.092-.198-.117-.417-.069-.627s.163-.404.334-.556c.171-.152.388-.255.625-.297s.482-.02.706.062c.223.082.414.221.548.4s.206.388.206.603c.001.143-.031.284-.092.417s-.151.252-.264.353c-.114.101-.248.182-.397.236s-.308.083-.468.083v-.004zM19.056 21.302v2.275h-.469v-2.275h.469zm.906.972v.366h-1.034v-.366h1.034zm.11-.972v.367h-1.144v-.367h1.144zm2.14 1.084v.108c0 .173-.023.328-.07.466s-.113.255-.198.352a.85.85 0 0 1-.306.22c-.118.051-.248.077-.392.077s-.273-.026-.392-.077a.868.868 0 0 1-.306-.22c-.086-.097-.154-.214-.202-.352s-.07-.293-.07-.466v-.108c0-.174.023-.329.07-.466a1.04 1.04 0 0 1 .198-.352.87.87 0 0 1 .306-.222.986.986 0 0 1 .392-.077c.144 0 .274.026.392.077a.844.844 0 0 1 .306.222c.086.097.153.214.2.352.048.136.072.292.072.466zm-.473.108v-.111c0-.121-.011-.227-.033-.319s-.054-.169-.097-.231-.095-.109-.156-.141c-.061-.032-.132-.048-.211-.048s-.149.016-.211.048a.423.423 0 0 0-.155.141c-.042.063-.073.14-.095.231s-.033.198-.033.319v.111c0 .12.011.226.033.319a.708.708 0 0 0 .097.233c.043.063.095.11.156.142s.132.048.211.048a.42.42 0 0 0 .366-.19c.042-.064.073-.141.095-.233s.033-.199.033-.319zm1.995.488a.286.286 0 0 0-.019-.109.2.2 0 0 0-.066-.091c-.032-.028-.078-.056-.136-.083s-.134-.055-.227-.084a2.991 2.991 0 0 1-.294-.112 1.229 1.229 0 0 1-.244-.145.654.654 0 0 1-.166-.195.534.534 0 0 1-.059-.258.53.53 0 0 1 .063-.258.596.596 0 0 1 .175-.2.857.857 0 0 1 .266-.13c.103-.03.216-.045.339-.045.168 0 .314.03.439.091s.222.143.291.248c.07.105.105.226.105.361h-.466a.351.351 0 0 0-.042-.175.285.285 0 0 0-.125-.12.446.446 0 0 0-.209-.044.484.484 0 0 0-.203.038.276.276 0 0 0-.122.098.243.243 0 0 0-.041.137c0 .039.009.073.028.105.02.031.049.06.088.088s.086.053.142.077c.056.024.121.047.195.07.124.038.233.08.327.127.095.047.174.099.238.158s.111.124.144.198a.63.63 0 0 1 .048.252.547.547 0 0 1-.225.464c-.073.054-.16.095-.261.123s-.214.042-.339.042c-.113 0-.223-.015-.333-.044a1.011 1.011 0 0 1-.298-.136.657.657 0 0 1-.293-.564h.47c0 .071.011.131.033.18s.053.089.092.119c.041.03.089.052.144.066.056.014.118.02.184.02a.5.5 0 0 0 .2-.034c.053-.023.092-.055.117-.095s.039-.086.039-.137zm1.805-1.68v2.275h-.467v-2.275h.467zm.7 0v.367h-1.856v-.367h1.856zm1.794 1.909v.366h-1.211v-.366h1.211zm-1.058-1.909v2.275h-.469v-2.275h.469zm.9.927v.356h-1.053v-.356h1.053zm.156-.927v.367h-1.209v-.367h1.209zm.275 0h.848c.174 0 .323.026.448.078.126.052.223.129.291.231s.102.228.102.377a.718.718 0 0 1-.063.314.591.591 0 0 1-.173.217.898.898 0 0 1-.261.137l-.148.078h-.738l-.003-.366h.548c.082 0 .151-.015.205-.044s.095-.07.122-.122a.375.375 0 0 0 .042-.181c0-.073-.014-.136-.041-.189s-.068-.094-.123-.122a.456.456 0 0 0-.208-.042h-.38v1.908h-.469v-2.275zm1.272 2.275-.519-1.014.495-.003.525.995v.022h-.502zm2.461-.811h-.58V22.4h.58c.09 0 .163-.015.219-.044.056-.03.097-.072.123-.125s.039-.113.039-.18c0-.068-.013-.131-.039-.189s-.067-.105-.123-.141-.129-.053-.219-.053h-.417v1.908h-.469v-2.275h.886c.178 0 .331.032.458.097.128.064.226.152.294.264s.102.241.102.386c0 .147-.034.274-.102.381s-.166.19-.294.248c-.127.058-.28.088-.458.088zm2.703.445v.366h-1.211v-.366h1.211zm-1.058-1.909v2.275h-.469v-2.275h.469zm.9.927v.356h-1.053v-.356h1.053zm.156-.927v.367h-1.209v-.367h1.209zm1.324 0v2.275h-.467v-2.275h.467zm.7 0v.367h-1.856v-.367h1.856zm1.794 1.909v.366h-1.211v-.366h1.211zM37.5 21.302v2.275h-.469v-2.275h.469zm.9.927v.356h-1.053v-.356H38.4zm.156-.927v.367h-1.209v-.367h1.209zm.275 0h.848c.174 0 .323.026.448.078.126.052.223.129.291.231s.102.228.102.377a.718.718 0 0 1-.063.314.591.591 0 0 1-.173.217.898.898 0 0 1-.261.137l-.148.078h-.737l-.003-.366h.548c.082 0 .151-.015.205-.044s.095-.07.122-.122a.375.375 0 0 0 .042-.181c0-.073-.014-.136-.041-.189s-.068-.094-.123-.122a.456.456 0 0 0-.208-.042h-.38v1.908h-.469v-2.275zm1.272 2.275-.519-1.014.495-.003.525.995v.022h-.502zm1.962-.595a.286.286 0 0 0-.019-.109.2.2 0 0 0-.066-.091c-.032-.028-.078-.056-.136-.083s-.134-.055-.227-.084a2.991 2.991 0 0 1-.294-.112 1.229 1.229 0 0 1-.244-.145.654.654 0 0 1-.166-.195.534.534 0 0 1-.059-.258.53.53 0 0 1 .063-.258.596.596 0 0 1 .175-.2.857.857 0 0 1 .266-.13c.103-.03.216-.045.339-.045.168 0 .314.03.439.091s.222.143.291.248c.07.105.105.226.105.361h-.466a.351.351 0 0 0-.042-.175.285.285 0 0 0-.125-.12.446.446 0 0 0-.209-.044.484.484 0 0 0-.203.038.276.276 0 0 0-.122.098.243.243 0 0 0-.041.137c0 .039.009.073.028.105.02.031.049.06.088.088s.086.053.142.077c.056.024.121.047.195.07.124.038.233.08.327.127.095.047.174.099.237.158s.111.124.144.198a.63.63 0 0 1 .048.252.547.547 0 0 1-.225.464c-.073.054-.16.095-.261.123s-.214.042-.339.042c-.113 0-.223-.015-.333-.044a1.011 1.011 0 0 1-.298-.136.657.657 0 0 1-.293-.564h.47c0 .071.011.131.033.18s.053.089.092.119c.041.03.089.052.144.066.056.014.118.02.184.02a.5.5 0 0 0 .2-.034.25.25 0 0 0 .117-.095.249.249 0 0 0 .039-.137z" style=""/></symbol><symbol id="icon-group4" viewBox="0 0 57 32"><path fill="" d="M14.27 23.859c.13.147.199.332.196.521.007.123-.017.247-.07.361s-.132.216-.233.297c-.252.175-.565.26-.881.24h-1.549v-3.302h1.517c.299-.018.596.059.84.219.098.075.176.17.227.277s.074.224.068.341a.725.725 0 0 1-.176.505.839.839 0 0 1-.462.258.897.897 0 0 1 .523.282zm-1.816-.499h.648a.653.653 0 0 0 .412-.11c.049-.04.087-.09.111-.146s.034-.116.028-.176c.005-.06-.005-.12-.029-.175s-.061-.106-.108-.147a.665.665 0 0 0-.425-.111h-.638v.866zm1.124 1.267c.052-.041.093-.093.12-.151s.038-.121.034-.184c.004-.064-.008-.127-.035-.186s-.069-.111-.121-.153a.714.714 0 0 0-.44-.119h-.68v.908h.689a.732.732 0 0 0 .435-.114zM17.371 25.278l-.844-1.291h-.317v1.291h-.726v-3.302h1.374c.346-.022.689.078.957.281.192.179.308.415.327.666s-.061.499-.224.7c-.17.178-.401.296-.655.336l.898 1.32h-.789zm-1.161-1.74h.594c.412 0 .618-.167.618-.5a.458.458 0 0 0-.151-.371.687.687 0 0 0-.467-.134h-.601l.007 1.005zM21.339 24.614h-1.446l-.255.665h-.761l1.328-3.265h.823l1.323 3.265h-.761l-.25-.665zm-.194-.5-.529-1.394-.529 1.394h1.057zM26.305 25.278h-.721l-1.616-2.245v2.245h-.719v-3.302h.719l1.616 2.258v-2.258h.721v3.302zM30.417 24.488a1.501 1.501 0 0 1-.652.582 2.282 2.282 0 0 1-1.013.208h-1.283v-3.302h1.283c.351-.008.698.061 1.013.203.276.127.503.328.652.576a1.78 1.78 0 0 1 0 1.732zm-.824-.079c.206-.219.319-.499.319-.788s-.113-.569-.319-.788a1.326 1.326 0 0 0-.902-.281h-.5v2.137h.5c.329.019.654-.082.902-.281zM21.79 3.609s9.301 3.215 9.103 7.867v7.869s-9.294-3.217-9.1-7.869l-.004-7.867zM39.179 17.503a13.494 13.494 0 0 1 5.909-1.994v-2.463c-2.444.862-4.517 2.426-5.909 4.457z" style=""/><path fill="" d="M38.124 18.245c1.438-2.651 3.93-4.696 6.964-5.715V5.432s-13.245 4.58-12.965 11.205V27.84s.59-.205 1.519-.589c0-.358 0-.719.042-1.082.274-3.076 1.871-5.926 4.44-7.924z" style=""/><path fill="" d="M36.864 22.407c.07-.777.225-1.546.463-2.294-1.599 1.725-2.568 3.866-2.77 6.122-.019.213-.03.426-.035.645a40.466 40.466 0 0 0 2.548-1.229 10.624 10.624 0 0 1-.206-3.244zM37.391 22.447a10.17 10.17 0 0 0 .164 2.938c3.619-1.983 7.685-5.046 7.528-8.748v-.323c-2.585.265-5.004 1.3-6.885 2.946a10.29 10.29 0 0 0-.807 3.188z" style=""/></symbol><symbol id="icon-group5" viewBox="0 0 57 32"><path fill="" d="M28.493 14.618a1.58 1.58 0 0 1-.323-1.061v-1.538c0-.471.107-.83.321-1.075s.581-.367 1.102-.366c.489 0 .836.104 1.042.313.224.266.333.592.308.92v.361h-.875v-.366c.003-.12-.005-.24-.025-.358a.352.352 0 0 0-.125-.213.505.505 0 0 0-.317-.083.533.533 0 0 0-.333.088.412.412 0 0 0-.145.235 1.74 1.74 0 0 0-.034.38v1.866c-.014.18.025.36.112.524.044.055.104.099.175.127s.149.038.226.029a.478.478 0 0 0 .31-.084.375.375 0 0 0 .13-.227c.02-.124.03-.249.027-.374v-.379h.875v.346c.025.342-.082.682-.303.967-.201.228-.544.343-1.047.343s-.884-.122-1.1-.375zM32.137 14.633c-.221-.239-.332-.588-.332-1.05v-1.617c0-.457.11-.802.332-1.037s.591-.351 1.109-.35c.515 0 .882.117 1.103.35.221.235.333.58.333 1.037v1.617c0 .457-.112.807-.337 1.048s-.591.361-1.1.361c-.509 0-.886-.122-1.109-.36zm1.517-.388a.906.906 0 0 0 .105-.479v-1.98a.88.88 0 0 0-.103-.469c-.044-.057-.106-.101-.179-.129s-.152-.037-.231-.027c-.079-.009-.159 0-.231.028s-.135.072-.18.129a.853.853 0 0 0-.105.469v1.99a.888.888 0 0 0 .105.479c.051.05.114.091.185.119a.612.612 0 0 0 .635-.119v-.009zM35.735 10.626h.942l.708 2.984.725-2.984h.917l.092 4.308h-.678l-.072-2.994-.699 2.994h-.544l-.725-3.005-.067 3.005h-.685l.085-4.308zM40.176 10.626h1.468c.846 0 1.268.408 1.268 1.223 0 .781-.445 1.171-1.335 1.17h-.5v1.915h-.906l.005-4.308zm1.254 1.841a.7.7 0 0 0 .498-.136.693.693 0 0 0 .13-.486 1.327 1.327 0 0 0-.044-.391c-.013-.043-.036-.083-.067-.118s-.07-.065-.114-.087a.94.94 0 0 0-.404-.069h-.352v1.287h.352zM44.218 10.626h.973l.998 4.308h-.844l-.197-.993h-.868l-.203.993h-.857l.998-4.308zm.832 2.815-.339-1.808-.339 1.808h.678zM46.996 10.626h.634l1.214 2.457v-2.457h.752v4.308h-.603l-1.221-2.565v2.565h-.777l.002-4.308zM51.357 13.291l-1.009-2.659h.85l.616 1.708.578-1.708h.832l-.997 2.659v1.642h-.87v-1.642zM29.892 16.817v.225h-.739v1.75h-.31v-1.75H28.1v-.225h1.792zM32.209 18.793h-.239a.105.105 0 0 1-.067-.019.102.102 0 0 1-.04-.045l-.214-.469h-1.026l-.214.469a.119.119 0 0 1-.033.053.112.112 0 0 1-.067.019h-.239l.906-1.976h.315l.917 1.968zm-1.5-.734h.855l-.362-.804a1.426 1.426 0 0 1-.067-.186 4.03 4.03 0 0 0-.034.105l-.033.083-.359.802zM33.771 18.599a1.018 1.018 0 0 0 .315-.023.961.961 0 0 0 .13-.036c.04-.014.08-.031.121-.048v-.444h-.362c-.009 0-.018-.001-.026-.003s-.016-.007-.023-.012c-.006-.004-.011-.01-.014-.016s-.005-.013-.004-.02v-.152h.703v.757a1.407 1.407 0 0 1-.609.202 2.591 2.591 0 0 1-.264.012 1.41 1.41 0 0 1-.457-.073 1.104 1.104 0 0 1-.362-.206.956.956 0 0 1-.234-.313.99.99 0 0 1-.083-.41.907.907 0 0 1 .316-.726c.103-.089.227-.159.362-.205.155-.05.32-.075.486-.074.084 0 .169.006.252.017a1.21 1.21 0 0 1 .397.128c.056.031.108.065.158.103l-.087.122c-.007.011-.017.021-.029.027s-.027.01-.041.01a.118.118 0 0 1-.056-.016 1.344 1.344 0 0 1-.089-.047.727.727 0 0 0-.121-.053 1.171 1.171 0 0 0-.167-.044 1.362 1.362 0 0 0-.23-.017 1.06 1.06 0 0 0-.35.055.704.704 0 0 0-.435.402.924.924 0 0 0 0 .659.756.756 0 0 0 .446.405c.115.034.237.047.359.039zM36.659 18.567h.989v.225h-1.292v-1.976h.31l-.007 1.75zM38.678 18.792h-.31v-1.976h.31v1.976zM39.83 16.826a.151.151 0 0 1 .047.036l1.324 1.489a.41.41 0 0 1 0-.07v-1.472h.27v1.984h-.156a.14.14 0 0 1-.067-.011.184.184 0 0 1-.049-.038l-1.323-1.488v1.536h-.259v-1.976h.161c.017 0 .035.003.051.009zM43.753 16.817v.217h-1.098v.652h.89v.21h-.89v.674h1.098v.217h-1.417v-1.971h1.417zM11.286 4.616l13.757 3.372v11.818l-13.757-3.371V4.616zm-.882-1.007V17.01l15.52 3.806V7.417L10.404 3.61z" style=""/><path fill="" d="M18.722 27.036 3.2 23.227V9.828l15.522 3.807v13.401z" style=""/><path fill="" d="m10.661 4.465 13.578 3.33-5.774 4.987L4.885 9.45l5.776-4.985zm-.257-.856L3.2 9.828l15.522 3.807 7.202-6.219-15.52-3.807zM19.595 26.282l6.329-5.465-6.329-1.553v7.018z" style=""/></symbol><symbol id="icon-instagram" viewBox="0 0 32 32"><path fill="" d="M31.968 9.408c-.074-1.701-.349-2.869-.742-3.882a7.839 7.839 0 0 0-1.85-2.837l-.001-.001A7.906 7.906 0 0 0 26.597.861l-.054-.018C25.524.449 24.362.176 22.661.101 20.949.019 20.405 0 16.059 0c-4.344 0-4.888.019-6.595.094-1.699.074-2.869.349-3.88.742a7.847 7.847 0 0 0-2.839 1.85l-.001.001A7.9 7.9 0 0 0 .919 5.465l-.018.054C.506 6.538.232 7.7.157 9.401c-.082 1.712-.101 2.256-.101 6.602 0 4.344.019 4.888.094 6.595.075 1.701.35 2.869.744 3.882a7.915 7.915 0 0 0 1.849 2.837l.001.001c.8.813 1.77 1.443 2.832 1.843 1.019.395 2.182.67 3.882.744 1.707.075 2.251.094 6.595.094 4.346 0 4.89-.019 6.595-.094 1.701-.074 2.869-.349 3.882-.742a8.237 8.237 0 0 0 4.664-4.628l.019-.055c.394-1.019.669-2.182.744-3.882.075-1.707.093-2.251.093-6.595s-.006-4.888-.08-6.595zm-2.88 13.066c-.07 1.563-.333 2.406-.55 2.97a5.341 5.341 0 0 1-3.004 3.024l-.036.012c-.56.219-1.411.482-2.968.55-1.688.075-2.194.094-6.464.094-4.269 0-4.782-.019-6.464-.094-1.563-.069-2.406-.331-2.97-.55a4.953 4.953 0 0 1-1.836-1.192l-.001-.001a4.978 4.978 0 0 1-1.184-1.803L3.6 25.45c-.218-.563-.48-1.413-.549-2.97-.075-1.688-.094-2.195-.094-6.464 0-4.27.019-4.784.094-6.464.069-1.563.331-2.406.549-2.97a4.897 4.897 0 0 1 1.198-1.837l.002-.002a4.972 4.972 0 0 1 1.806-1.182l.034-.011c.56-.219 1.411-.48 2.968-.55 1.688-.074 2.195-.093 6.464-.093 4.275 0 4.782.019 6.464.093 1.563.069 2.406.331 2.97.55a4.91 4.91 0 0 1 1.837 1.194c.531.52.938 1.144 1.195 1.84.218.56.48 1.411.549 2.968.075 1.688.094 2.194.094 6.464 0 4.269-.019 4.768-.094 6.458z" style=""/><path fill="" d="M16.059 7.782a8.223 8.223 0 0 0-8.219 8.221 8.223 8.223 0 0 0 16.442.008v-.009a8.223 8.223 0 0 0-8.221-8.221zm0 13.552a5.333 5.333 0 0 1 .001-10.666h.001a5.334 5.334 0 1 1 0 10.668zM26.525 7.458a1.92 1.92 0 0 1-3.84 0 1.92 1.92 0 0 1 3.84 0z" style=""/></symbol><symbol id="icon-linkedin" viewBox="0 0 32 32"><path fill="" d="M31.992 32H32V20.262c0-5.741-1.237-10.163-7.947-10.163-3.227 0-5.392 1.77-6.277 3.45h-.093v-2.914h-6.365v21.363h6.627V21.42c0-2.786.528-5.48 3.978-5.48 3.398 0 3.448 3.179 3.448 5.658V32h6.621zM.528 10.635h6.635V32H.528V10.635zM3.843 0A3.843 3.843 0 0 0 0 3.843c0 2.12 1.722 3.878 3.843 3.878 2.12 0 3.842-1.757 3.842-3.878S5.965.002 3.844 0z" style=""/></symbol><symbol id="icon-twitter" viewBox="0 0 32 32"><path fill="" d="M32 6.078c-1.1.493-2.376.857-3.713 1.028l-.068.007a6.556 6.556 0 0 0 2.873-3.579l.013-.046a12.88 12.88 0 0 1-4.076 1.573l-.084.014A6.558 6.558 0 0 0 15.6 9.557v.004c0 .52.043 1.021.152 1.496-5.454-.266-10.28-2.88-13.522-6.861a6.524 6.524 0 0 0-.902 3.313v.001a6.57 6.57 0 0 0 2.914 5.451 6.453 6.453 0 0 1-2.994-.823l.033.017v.072a6.592 6.592 0 0 0 5.213 6.44l.043.008a6.403 6.403 0 0 1-1.662.215h-.061.003c-.419 0-.843-.024-1.242-.112.85 2.598 3.261 4.509 6.13 4.57a13.093 13.093 0 0 1-8.122 2.8H1.57h.001-.062c-.531 0-1.055-.034-1.569-.099l.061.006c2.826 1.846 6.287 2.944 10.004 2.944h.063-.003c12.072 0 18.672-10 18.672-18.669 0-.288-.01-.57-.024-.848a13.203 13.203 0 0 0 3.258-3.355l.03-.047z" style=""/></symbol><symbol id="icon-Vector" viewBox="0 0 20 32"><path  d="M17 0H3C1.346 0 0 1.346 0 3v26c0 1.654 1.346 3 3 3h14c1.654 0 3-1.346 3-3V3c0-1.654-1.346-3-3-3zM3 2h14a1 1 0 0 1 1 1v21H2V3a1 1 0 0 1 1-1zm14 28H3a1 1 0 0 1-1-1v-3h16v3a1 1 0 0 1-1 1z" style=""/></symbol><symbol id="icon-vector-1" viewBox="0 0 32 32"><path d="M32 3.223l-3.223-3.223-12.777 12.777-12.777-12.777-3.223 3.223 12.777 12.777-12.777 12.777 3.223 3.223 12.777-12.777 12.777 12.777 3.223-3.223-12.777-12.777 12.777-12.777z"></path></symbol></defs></svg>